:SAMPLES-PER-SECOND 30
:FULLY-SPECIFIED
:DEGREES
112
root  13.99417787 38.13777833 2.149297684 -10.26300049 -55.06700134 7.294998169
lowerback  13.60529995 4.307869911 2.115839958
upperback  5.299349785 5.86082983 1.420779943
thorax  -1.955839992 2.868659973 -0.575733006
lowerneck  -2.120369911 7.35435009 -3.261260033
upperneck  13.47749996 9.73003006 2.623330116
head  4.531970024 4.722599983 1.871719956
lclavicle  0 -9.442270133e-015 7.951389973e-016
lhumerus  13.38160038 -4.502510071 81.69470215
lradius  2.46297004e-031 -2.530340416e-031 134.227005
lwrist  -7.062250077e-031 8.827812596e-032 20.67210007
lhand  -1.496451383e-031 -27.76390076 20.11240005
lfingers  90 7.125020027 -90
lthumb  89.89689403 5.08795885 91.16245106
rclavicle  0 -9.442270133e-015 7.951389973e-016
rhumerus  33.6427002 18.91769981 -77.4285965
rradius  -1.196357943e-031 3.32228411e-031 109.8040009
rwrist  7.062250077e-031 5.296687558e-031 -51.9992981
rhand  -7.920061211e-032 -33.2840004 9.303460121
rfingers  -90 -7.125020027 -90
rthumb  -92.93752616 -24.25625642 -97.11982154
rfemur  -8.64536953 14.57310009 -2.88812995
rtibia  -0 0 48.87900162
rfoot  -4.722208891e-032 -20.81830025 -5.06896019
rtoes  5.373923086 19.29304026 -105.8922705
lfemur  -23.95369911 -1.557970047 -0.5629760027
ltibia  -0 0 58.34090042
lfoot  4.415445638e-032 1.512969971 -5.352300167
ltoes  -4.250644065 -19.5611806 -102.515957
113
root  14.11544469 38.26977887 2.204155546 -10.48100281 -56.23300171 7.552001953
lowerback  13.93200016 4.115180016 2.167370081
upperback  5.434790134 5.614580154 1.704749942
thorax  -2.017920017 2.738110065 -0.2936120033
lowerneck  -1.796710014 7.694779873 -2.654839993
upperneck  13.72550011 10.23149967 1.792919993
head  4.625490189 4.950230122 1.507439971
lclavicle  0 -9.442270133e-015 7.951389973e-016
lhumerus  12.55990028 -4.070859909 82.13539886
lradius  2.472139319e-031 -2.5213828e-031 134.4349976
lwrist  0 8.827812596e-032 20.69280052
lhand  -1.496451383e-031 -27.76390076 20.11240005
lfingers  90 7.125020027 -90
lthumb  89.89689403 5.08795885 91.16245106
rclavicle  0 -9.442270133e-015 7.951389973e-016
rhumerus  33.70289993 19.34729958 -76.92559814
rradius  -1.209047946e-031 3.317687011e-031 110.0230026
rwrist  7.062250077e-031 3.531125038e-031 -52.24440002
rhand  -7.920061211e-032 -33.2840004 9.303460121
rfingers  -90 -7.125020027 -90
rthumb  -92.93752616 -24.25625642 -97.11982154
rfemur  -9.625650406 14.65839958 -3.632649899
rtibia  -0 0 48.74549866
rfoot  -4.677128974e-032 -19.31380081 -3.1057899
rtoes  5.373923086 19.29304026 -105.8922705
lfemur  -24.07970047 -2.011830091 -0.6171420217
ltibia  -0 0 58.83739853
lfoot  -0 2.011399984 -6.744840145
ltoes  -4.250644065 -19.5611806 -102.515957
114
root  14.23673404 38.38355598 2.262355587 -10.72000122 -57.38600159 7.910003662
lowerback  14.18190002 3.973880053 2.392829895
upperback  5.580920219 5.449570179 1.736400008
thorax  -1.982190013 2.654079914 -0.3718920052
lowerneck  -1.704900026 7.902719975 -1.736559987
upperneck  14.02390003 10.51350021 1.251260042
head  4.799580097 5.099199772 1.197270036
lclavicle  0 -9.442270133e-015 7.951389973e-016
lhumerus  11.99989986 -4.037660122 82.27690125
lradius  2.481759057e-031 -2.511914811e-031 134.654007
lwrist  0 1.765562519e-031 20.80780029
lhand  -1.496451383e-031 -27.76390076 20.11240005
lfingers  90 7.125020027 -90
lthumb  89.89689403 5.08795885 91.16245106
rclavicle  0 -9.442270133e-015 7.951389973e-016
rhumerus  33.74259949 19.26440048 -76.66729736
rradius  -1.225073342e-031 3.311803035e-031 110.3000031
rwrist  7.062250077e-031 7.062250077e-031 -52.33860016
rhand  -7.920061211e-032 -33.2840004 9.303460121
rfingers  -90 -7.125020027 -90
rthumb  -92.93752616 -24.25625642 -97.11982154
rfemur  -10.75349998 14.76509953 -4.373030186
rtibia  -0 0 48.78779984
rfoot  -4.638343508e-032 -17.89660072 -1.157559991
rtoes  5.373923086 19.29304026 -105.8922705
lfemur  -24.2765007 -2.497639894 -0.7826070189
ltibia  -0 0 59.44390106
lfoot  -0 2.002170086 -8.206959724
ltoes  -4.250644065 -19.5611806 -102.515957
115
root  14.35584421 38.47600081 2.314422262 -11.04899597 -58.52400208 8.457000732
lowerback  14.38459969 3.935460091 2.331690073
upperback  5.69370985 5.385890007 1.817370057
thorax  -1.986719966 2.616990089 -0.2540529966
lowerneck  -1.720649958 7.988480091 -0.971167028
upperneck  14.27250004 10.64140034 0.750880003
head  4.974349976 5.16850996 0.9240810275
lclavicle  0 -9.442270133e-015 7.951389973e-016
lhumerus  11.43599987 -4.270810127 82.57409668
lradius  2.490905317e-031 -2.502845328e-031 134.8630066
lwrist  -1.412450015e-030 8.827812596e-032 20.87929916
lhand  -1.496451383e-031 -27.76390076 20.11240005
lfingers  90 7.125020027 -90
lthumb  89.89689403 5.08795885 91.16245106
rclavicle  0 -9.442270133e-015 7.951389973e-016
rhumerus  33.65570068 18.95359993 -76.27940369
rradius  -1.235471633e-031 3.30793801e-031 110.4800034
rwrist  7.062250077e-031 7.062250077e-031 -52.25550079
rhand  -7.920061211e-032 -33.2840004 9.303460121
rfingers  -90 -7.125020027 -90
rthumb  -92.93752616 -24.25625642 -97.11982154
rfemur  -12.02649975 14.92259979 -5.1416502
rtibia  -0 0 49.01010132
rfoot  -4.891760552e-032 -16.52230072 -0.1361449957
rtoes  5.373923086 19.29304026 -105.8922705
lfemur  -24.58200073 -2.971339941 -1.084560037
ltibia  -0 0 60.19240189
lfoot  -0 1.895969987 -9.120610237
ltoes  -4.250644065 -19.5611806 -102.515957
